<svg width="135" height="135" viewBox="0 0 135 135" fill="none" xmlns="http://www.w3.org/2000/svg">
<circle cx="67.5" cy="67.5" r="67.5" fill="#020F83"/>
<path d="M46.208 81.84H24.32L20.288 93H13.376L31.52 43.104H39.08L57.152 93H50.24L46.208 81.84ZM44.336 76.512L35.264 51.168L26.192 76.512H44.336ZM71.6116 60.888C72.9556 58.536 74.9236 56.616 77.5156 55.128C80.1076 53.64 83.0596 52.896 86.3716 52.896C89.9236 52.896 93.1156 53.736 95.9476 55.416C98.7796 57.096 101.012 59.472 102.644 62.544C104.276 65.568 105.092 69.096 105.092 73.128C105.092 77.112 104.276 80.664 102.644 83.784C101.012 86.904 98.7556 89.328 95.8756 91.056C93.0436 92.784 89.8756 93.648 86.3716 93.648C82.9636 93.648 79.9636 92.904 77.3716 91.416C74.8276 89.928 72.9076 88.032 71.6116 85.728V93H65.0596V39.72H71.6116V60.888ZM98.3956 73.128C98.3956 70.152 97.7956 67.56 96.5956 65.352C95.3956 63.144 93.7636 61.464 91.6996 60.312C89.6836 59.16 87.4516 58.584 85.0036 58.584C82.6036 58.584 80.3716 59.184 78.3076 60.384C76.2916 61.536 74.6596 63.24 73.4116 65.496C72.2116 67.704 71.6116 70.272 71.6116 73.2C71.6116 76.176 72.2116 78.792 73.4116 81.048C74.6596 83.256 76.2916 84.96 78.3076 86.16C80.3716 87.312 82.6036 87.888 85.0036 87.888C87.4516 87.888 89.6836 87.312 91.6996 86.16C93.7636 84.96 95.3956 83.256 96.5956 81.048C97.7956 78.792 98.3956 76.152 98.3956 73.128ZM115.804 93.432C114.556 93.432 113.5 93 112.636 92.136C111.772 91.272 111.34 90.216 111.34 88.968C111.34 87.72 111.772 86.664 112.636 85.8C113.5 84.936 114.556 84.504 115.804 84.504C117.004 84.504 118.012 84.936 118.828 85.8C119.692 86.664 120.124 87.72 120.124 88.968C120.124 90.216 119.692 91.272 118.828 92.136C118.012 93 117.004 93.432 115.804 93.432Z" fill="white"/>
</svg>
